<?xml version="1.0" encoding="UTF-8"?>
<svg version="1.1" viewBox="0 0 2048 721" width="1280" height="1280" xmlns="http://www.w3.org/2000/svg">
<path transform="translate(350,1)" d="m0 0h16l16 2 18 5 21 10 11 8 14 12 9 9 7 8 173 173 7 8 47 47 10 14 8 15 6 18 3 15v28l-4 20-6 16-9 16-10 13-160 160-8 7-81 81-13 10-14 8-13 6-20 5-7 1h-26l-20-4-16-6-16-9-13-10-87-87-7-8-39-39-6-5-5-5v-2h-2v-2h-2l-3-3v-2h-2v-2h-2v-2l-4-2-10-10-7-8-74-74-10-13-9-16-6-17-3-15-1-9v-16l3-20 5-16 8-16 9-13 15-16 13-13 8-7 183-183 8-7 32-32 16-11 17-8 18-5z" fill="#3DA806"/>
<path transform="translate(1014,3)" d="m0 0h20l19 3 16 5 16 8 13 9 12 11 110 110 7 8 125 125 10 13 8 14 6 14 4 16 2 18-1 20-4 19-6 16-8 14-11 14-140 140-8 7-101 101-13 10-14 8-14 6-15 4-14 2h-18l-19-3-21-7-16-9-13-10-213-213-2-3 1-7 10-14 10-17 8-20 5-17 3-18 1-12v-17l-2-19-4-19-7-20-8-16-7-12-10-14 1-6 27-27 8-7 139-139 8-7 36-36 14-10 16-8 15-5z" fill="#3DA806"/>
<path transform="translate(1679,5)" d="m0 0h24l18 3 17 6 15 8 14 11 8 8 2 1v2h2v2h2l7 8 218 218 7 8 8 8 8 11 6 10 6 15 5 19 2 9v22l-6 25-6 15-6 11-10 14-147 147h-2l-2 4-19 19h-2v2h-2l-2 4-58 58-8 7-8 8-11 9-14 9-18 8-21 5-9 1h-15l-20-3-16-5-17-8-14-10-13-12-102-102-7-8-95-95-2-3 1-5 12-18 12-23 8-24 4-20 1-9v-27l-3-21-5-19-8-20-9-17-12-18v-5l9-10 9-9 8-7 137-137 8-7 10-10 7-8 13-10 19-14 17-12 23-14 7-3z" fill="#3DA806"/>
<path transform="translate(1589,57)" d="m0 0h2v371l2 26 5 23 8 20 12 21 9 12 9 11 14 14 13 10 17 10 16 7 20 6 16 3 25 2 104 1-1 5-10 10h-2v2h-2l-2 4-58 58-8 7-8 8-11 9-14 9-18 8-21 5-9 1h-15l-20-3-16-5-17-8-14-10-13-12-102-102-7-8-95-95-2-3 1-5 12-18 12-23 8-24 4-20 1-9v-27l-3-21-5-19-8-20-9-17-12-18v-5l9-10 9-9 8-7 137-137 8-7 10-10 7-8z" fill="#3DA806"/>
<path transform="translate(457,51)" d="m0 0 7 6 62 62-1 46-1 269-3 22-6 22-8 19-8 15-12 17-12 13-9 9-13 10-18 11-15 7-18 6-19 4-20 2-20-1-19-3-20-6-17-7-19-11-11-8-11-9-17-17-12-17-10-19-6-16-5-21-2-16v-31l3-21 6-21 7-16 9-16 10-13 12-13 10-9 16-12 15-9 17-8 15-5 18-4 16-2 109-1 1-1 1-70v-121l-1-11z" fill="#FEFEFE"/>
<path transform="translate(1016,262)" d="m0 0h17l24 3 19 5 20 8 18 10 16 12 12 11 11 12 12 17 10 19 7 19 5 20 2 17v24l-3 21-6 21-6 15-9 17-9 13-11 13-13 13-13 10-18 11-15 7-21 7-22 4-14 1h-15l-17-2-19-4-17-6-19-9-15-10-11-9-10-9-10-11-11-15-10-18-8-20-5-19-3-22v-24l3-22 6-21 7-17 8-15 10-14 11-12 12-12 15-11 15-9 15-7 21-7 22-4z" fill="#FEFEFE"/>
<path transform="translate(1655,11)" d="m0 0h2v316l2 2 129 1 13 1 12 6 7 8 4 9 1 5v7l-3 10-7 9-5 4-9 4-4 1-138 1-2 1-1 10v24l2 20 5 17 9 17 7 9 9 10 13 10 16 8 16 5 13 2 108 1h75l-6 7-50 50h-2l-2 4-7 7-1-3h-104l-25-2-20-4-24-8-19-10-15-11-12-11-10-10-10-13-9-14-10-18-6-16-5-23-2-26v-372l38-28 19-12z" fill="#FEFEFE"/>
<path transform="translate(357,324)" d="m0 0 99 1 3 3v104l-3 19-7 19-10 16-11 12-10 9-13 8-15 6-16 4-19 1-17-2-17-5-16-8-12-9-13-13-10-15-7-16-4-18-1-9v-12l3-19 5-15 7-14 10-13 11-11 15-10 13-6 13-4 11-2z" fill="#3DA806"/>
<path transform="translate(1017,326)" d="m0 0h13l19 3 17 6 16 9 13 11 9 10 9 14 6 13 5 19 1 18-2 18-4 14-7 16-10 14-9 10-12 10-17 9-16 5-12 2h-22l-17-3-19-7-15-9-13-12-8-9-9-15-6-16-3-13-1-9v-14l2-15 5-16 8-16 10-13 10-10 11-8 12-7 18-6 9-2z" fill="#3DA806"/>
</svg>
